<svg width="90" height="90" viewBox="0 0 90 90" fill="none" xmlns="http://www.w3.org/2000/svg">
<path fill-rule="evenodd" clip-rule="evenodd" d="M45 0C69.8571 0 90 20.1429 90 45C90 69.8571 69.8571 90 45 90C20.1429 90 0 69.8571 0 45C0 20.1429 20.1429 0 45 0Z" fill="url(#paint0_linear)"/>
<path fill-rule="evenodd" clip-rule="evenodd" d="M44.8981 1.83667C68.7961 1.83667 88.1634 21.204 88.1634 45.102C88.1634 68.9999 68.7961 88.3673 44.8981 88.3673C21.0002 88.3673 1.63281 68.9999 1.63281 45.102C1.63281 21.204 21.0002 1.83667 44.8981 1.83667Z" fill="#1D074D"/>
<path d="M46.9796 73.3264C45.6939 73.7958 44.3062 73.7958 43.0204 73.3264L27.8164 67.7958C26.5306 67.3264 25.4694 66.4285 24.796 65.2652L16.6939 51.2652C16.0204 50.0815 15.7755 48.7142 16 47.3876L18.8164 31.4897C19.0613 30.1632 19.7551 28.9387 20.796 28.0611L33.1837 17.6734C34.2245 16.7958 35.5511 16.3264 36.898 16.3264H53.0817C54.449 16.3264 55.7551 16.7958 56.796 17.6734L69.1837 28.0611C70.2245 28.9387 70.9184 30.1427 71.1633 31.4897L73.9796 47.3876C74.2245 48.7142 73.9796 50.1019 73.2857 51.2652L65.2041 65.2448C64.5306 66.4285 63.449 67.3264 62.1837 67.7754L46.9796 73.3264Z" fill="url(#paint1_linear)"/>
<path d="M46.7752 71.9184C45.5711 72.3674 44.2446 72.3674 43.0201 71.9184L28.6119 66.6939C27.4078 66.2449 26.3874 65.4082 25.7344 64.2858L18.0813 51.0409C17.4283 49.9388 17.2038 48.6327 17.4283 47.3674L20.0813 32.3062C20.3058 31.0409 20.9589 29.898 21.9589 29.0613L33.714 19.2449C34.6936 18.4082 35.9385 17.9592 37.2242 17.9592H52.5507C53.8364 17.9592 55.0813 18.4082 56.0813 19.2449L67.816 29.0817C68.7956 29.898 69.4691 31.0613 69.6936 32.3266L72.3466 47.3878C72.5711 48.6531 72.3466 49.9592 71.6936 51.0613L64.0405 64.2858C63.3874 65.4082 62.3874 66.2449 61.1629 66.6939L46.7752 71.9184Z" fill="url(#paint2_linear)"/>
<path fill-rule="evenodd" clip-rule="evenodd" d="M44.8984 44.8979C55.9441 44.8979 64.8984 42.0654 64.8984 38.5714C64.8984 35.0774 55.9441 32.2449 44.8984 32.2449C33.8527 32.2449 24.8984 35.0774 24.8984 38.5714C24.8984 42.0654 33.8527 44.8979 44.8984 44.8979ZM44.8984 44.0816C54.1408 44.0816 61.6331 41.706 61.6331 38.7755C61.6331 35.845 54.1408 33.4694 44.8984 33.4694C35.6561 33.4694 28.1637 35.845 28.1637 38.7755C28.1637 41.706 35.6561 44.0816 44.8984 44.0816Z" fill="white"/>
<path fill-rule="evenodd" clip-rule="evenodd" d="M44.8984 49.7829C54.1408 49.7829 61.6331 47.4699 61.6331 44.6168C61.6331 41.7637 54.1408 39.4507 44.8984 39.4507C35.6561 39.4507 28.1637 41.7637 28.1637 44.6168C28.1637 47.4699 35.6561 49.7829 44.8984 49.7829ZM44.8984 49.1163C52.6318 49.1163 58.9009 47.1764 58.9009 44.7835C58.9009 42.3905 52.6318 40.4506 44.8984 40.4506C37.1651 40.4506 30.8959 42.3905 30.8959 44.7835C30.8959 47.1764 37.1651 49.1163 44.8984 49.1163Z" fill="white"/>
<path fill-rule="evenodd" clip-rule="evenodd" d="M44.8984 54.4898C52.4501 54.4898 58.5719 52.571 58.5719 50.2041C58.5719 47.8371 52.4501 45.9183 44.8984 45.9183C37.3468 45.9183 31.225 47.8371 31.225 50.2041C31.225 52.571 37.3468 54.4898 44.8984 54.4898ZM44.8984 53.9368C51.2172 53.9368 56.3395 52.3275 56.3395 50.3423C56.3395 48.3571 51.2172 46.7478 44.8984 46.7478C38.5797 46.7478 33.4574 48.3571 33.4574 50.3423C33.4574 52.3275 38.5797 53.9368 44.8984 53.9368Z" fill="white"/>
<path fill-rule="evenodd" clip-rule="evenodd" d="M44.8984 57.9592C50.6467 57.9592 55.3066 56.5886 55.3066 54.8979C55.3066 53.2073 50.6467 51.8367 44.8984 51.8367C39.1502 51.8367 34.4903 53.2073 34.4903 54.8979C34.4903 56.5886 39.1502 57.9592 44.8984 57.9592ZM44.8984 57.5642C49.7082 57.5642 53.6073 56.4147 53.6073 54.9967C53.6073 53.5787 49.7082 52.4292 44.8984 52.4292C40.0887 52.4292 36.1896 53.5787 36.1896 54.9967C36.1896 56.4147 40.0887 57.5642 44.8984 57.5642Z" fill="white"/>
<path d="M9.69216 37.5917C9.44726 37.7142 9.18196 37.9795 8.89624 38.3876C8.67175 38.6938 8.5289 38.8978 8.44726 38.9591C8.36563 39.0407 8.30441 39.1019 8.22277 39.1223C8.14114 39.1427 8.05951 39.1632 7.97787 39.1427C7.83502 39.1223 7.73298 39.0407 7.65134 38.9387C7.59012 38.8162 7.56971 38.6734 7.59012 38.4693C7.61053 38.306 7.67175 38.1427 7.73298 37.9999C7.7942 37.8366 7.91665 37.6529 8.05951 37.408L7.34522 36.9591C7.20236 37.1836 7.07992 37.408 6.97787 37.6121C6.87583 37.8162 6.81461 38.0611 6.77379 38.306C6.69216 38.8162 6.73298 39.2244 6.93706 39.5509C7.12073 39.8774 7.42685 40.0815 7.85543 40.1427C8.07992 40.1836 8.284 40.1632 8.46767 40.1223C8.65134 40.0611 8.81461 39.9795 8.95747 39.857C9.10032 39.7346 9.284 39.5305 9.46767 39.2652C9.67175 38.9795 9.81461 38.7958 9.89624 38.7142C9.97787 38.6325 10.0595 38.5509 10.1411 38.5305C10.2228 38.4897 10.3044 38.4693 10.4064 38.4897C10.5697 38.5101 10.6922 38.5917 10.7534 38.7346C10.8146 38.857 10.835 39.0407 10.7942 39.2652C10.7534 39.4489 10.6922 39.6529 10.6105 39.857C10.5085 40.0611 10.3656 40.3264 10.1615 40.6121L11.1003 40.7754C11.3656 40.4285 11.5289 39.9795 11.6105 39.4897C11.7126 38.9387 11.6513 38.4897 11.4677 38.1427C11.284 37.7958 10.9575 37.5713 10.5289 37.5101C10.2024 37.4285 9.91665 37.4693 9.69216 37.5917Z" fill="white"/>
<path d="M13.386 32.4897L8.26359 32.6325L7.87583 33.8162L11.9575 36.8978L12.284 35.857L11.3044 35.1836L11.835 33.5101L13.0391 33.5305L13.386 32.4897ZM10.5901 34.6734C9.63094 33.9999 9.0391 33.5917 8.7942 33.4489C8.87583 33.4489 8.97787 33.4693 9.12073 33.4693C9.26359 33.4693 9.87583 33.4693 10.9575 33.4897L10.5901 34.6734Z" fill="white"/>
<path d="M15.182 28.7754L14.4269 28.408L13.5697 30.1632L9.99828 28.4285L9.5493 29.3468L13.8758 31.4489L15.182 28.7754Z" fill="white"/>
<path d="M16.6922 24.8162L15.733 26.2856L14.6922 25.5917L15.5901 24.2244L14.8962 23.7754L13.9983 25.1427L13.1207 24.5713L14.0799 23.1019L13.386 22.6529L11.8758 24.9795L15.8962 27.6121L17.4064 25.2856L16.6922 24.8162Z" fill="white"/>
<path d="M18.386 20.6938C18.1207 20.6734 17.7534 20.7754 17.3044 20.9795C16.9575 21.1427 16.733 21.2244 16.6309 21.2448C16.5289 21.2652 16.4269 21.2856 16.3452 21.2652C16.2636 21.2448 16.2024 21.2244 16.1207 21.1631C16.0187 21.0611 15.9575 20.9591 15.9575 20.8162C15.9575 20.6734 16.0187 20.5305 16.1411 20.3876C16.2432 20.2652 16.3656 20.1427 16.5085 20.0611C16.6513 19.9591 16.835 19.8366 17.0799 19.7142L16.6922 18.9591C16.4473 19.0815 16.2228 19.204 16.0391 19.3468C15.8554 19.4897 15.6718 19.6529 15.5085 19.8366C15.182 20.2244 15.0187 20.6121 15.0187 20.9795C15.0187 21.3468 15.182 21.6734 15.5085 21.9591C15.6718 22.1019 15.8554 22.204 16.0391 22.2448C16.2228 22.2856 16.4064 22.2856 16.6105 22.2652C16.7942 22.2448 17.0391 22.1632 17.3452 22.0203C17.6718 21.8774 17.8758 21.7958 17.9983 21.755C18.1207 21.7142 18.2228 21.7142 18.3044 21.7142C18.386 21.7142 18.4677 21.755 18.5493 21.8162C18.6718 21.9183 18.733 22.0611 18.733 22.204C18.7126 22.3468 18.6513 22.5101 18.4881 22.6734C18.3656 22.8162 18.2024 22.9591 18.0187 23.0815C17.835 23.2244 17.5697 23.3672 17.2432 23.5101L17.9575 24.1223C18.3656 23.9387 18.733 23.6734 19.0595 23.2652C19.4269 22.8366 19.6105 22.4285 19.6105 22.0203C19.6309 21.6121 19.4677 21.2856 19.1411 20.9999C18.9166 20.8162 18.6513 20.7142 18.386 20.6938Z" fill="white"/>
<path d="M22.4473 17.2244L23.7126 16.204L23.2024 15.5509L21.9371 16.5713L21.1615 15.6121L22.5289 14.5101L21.9983 13.857L19.8554 15.5713L22.8554 19.3264L23.6309 18.6938L22.4473 17.2244Z" fill="white"/>
<path d="M26.284 11.1427L27.7534 13.6734C27.9371 13.9999 28.0187 14.2652 27.9779 14.4897C27.9371 14.7142 27.7738 14.9183 27.4881 15.0815C27.182 15.2652 26.9371 15.306 26.7126 15.2244C26.4881 15.1427 26.3044 14.9591 26.1003 14.6325L24.6105 12.0815L23.733 12.5917L25.3044 15.2856C25.5901 15.755 25.9575 16.0407 26.4064 16.1427C26.8554 16.2448 27.3656 16.1427 27.8962 15.8162C28.2432 15.6121 28.5289 15.3672 28.7126 15.1019C28.8962 14.8366 28.9983 14.5305 28.9983 14.2244C28.9983 13.9183 28.9167 13.6121 28.733 13.306L27.1615 10.6121L26.284 11.1427Z" fill="white"/>
<path d="M33.4473 8.02029L32.5901 8.34682L33.386 10.4897C33.4677 10.7346 33.6513 11.1427 33.8962 11.7142H33.8758L30.6718 9.06111L29.4677 9.51009L31.1411 14.0203L31.9983 13.6938L31.2024 11.5713C31.1003 11.306 30.9371 10.8978 30.6718 10.306L30.6922 10.2856L33.9166 12.9591L35.1411 12.5101L33.4473 8.02029Z" fill="white"/>
<path d="M40.182 6.59172L39.284 6.75499L39.6922 8.99989C39.733 9.24478 39.835 9.69376 39.9779 10.2856H39.9575L37.2432 7.10193L35.9779 7.32642L36.835 12.0611L37.733 11.8978L37.3248 9.67335C37.284 9.40805 37.182 8.95907 37.0187 8.32642H37.0391L39.733 11.5305L40.9983 11.306L40.182 6.59172Z" fill="white"/>
<path d="M45.5289 10.2856L43.7738 10.3264L43.733 9.08152L45.3656 9.0407L45.3452 8.20397L43.7126 8.24478L43.6922 7.18356L45.4473 7.14274L45.4269 6.32642L42.6513 6.38764L42.7738 11.1836L45.5493 11.1223L45.5289 10.2856Z" fill="white"/>
<path d="M50.0391 11.4897L50.1207 10.6529L48.182 10.4489L48.5697 6.51009L47.5493 6.40805L47.0595 11.1836L50.0391 11.4897Z" fill="white"/>
<path d="M57.4881 13.4693L57.3452 8.34682L56.1615 7.95907L53.0799 12.0407L54.1207 12.3672L54.7942 11.3876L56.4677 11.9183L56.4473 13.1223L57.4881 13.4693ZM55.284 10.6734C55.9371 9.71417 56.3656 9.12233 56.5085 8.87744C56.5085 8.95907 56.4881 9.06111 56.4881 9.20397C56.4881 9.34682 56.4881 9.95907 56.4677 11.0407L55.284 10.6734Z" fill="white"/>
<path d="M61.2024 10.8366L61.4881 10.9795C61.7738 11.1223 61.9779 11.2856 62.0799 11.4285C62.182 11.5917 62.182 11.755 62.0799 11.9591C61.9779 12.1632 61.835 12.2856 61.6513 12.306C61.4677 12.3264 61.2228 12.2856 60.9371 12.1427L60.6513 11.9999L61.2024 10.8366ZM60.7534 12.9999L60.9575 15.1631L61.9779 15.6734C61.9167 15.2856 61.8146 14.4489 61.6513 13.1632C61.9575 13.1836 62.2432 13.1223 62.4677 12.9999C62.7126 12.8774 62.8962 12.6734 63.0187 12.4285C63.2432 11.9999 63.2636 11.5917 63.0799 11.2448C62.8962 10.8978 62.5289 10.5713 61.9371 10.2856L60.6922 9.65295L58.5493 13.9591L59.4677 14.408L60.284 12.755L60.7534 12.9999Z" fill="white"/>
<path d="M67.284 14.5101C67.4064 14.6734 67.5085 14.8366 67.6105 14.9999L68.3452 14.5101C68.0799 14.0611 67.7738 13.6938 67.386 13.4285C67.0187 13.1632 66.6309 13.0203 66.2228 12.9999C65.835 12.9795 65.4473 13.0611 65.0799 13.2652C64.7126 13.4693 64.386 13.7754 64.1003 14.1836C63.6513 14.8366 63.4473 15.4489 63.5085 15.9999C63.5697 16.5509 63.8962 17.0407 64.4677 17.4285C64.8758 17.7142 65.284 17.8978 65.6922 17.9795L66.182 17.2856C65.6922 17.1427 65.3044 16.9795 65.0391 16.7958C64.386 16.3468 64.3452 15.6734 64.9575 14.7958C65.2432 14.3672 65.5697 14.1019 65.8962 13.9795C66.2432 13.857 66.5697 13.9183 66.8758 14.1223C67.0595 14.2244 67.182 14.3672 67.284 14.5101Z" fill="white"/>
<path d="M73.0187 18.3468L72.284 17.6529L70.9779 19.0203L69.5901 17.7142L70.8962 16.3468L70.1615 15.6529L66.8554 19.1427L67.5901 19.8366L69.0187 18.3264L70.4064 19.6325L68.9779 21.1427L69.7126 21.8366L73.0187 18.3468Z" fill="white"/>
<path d="M71.4881 23.9795L75.2024 20.9387L74.5493 20.1427L70.835 23.1836L71.4881 23.9795Z" fill="white"/>
<path d="M76.8758 24.7346L77.5901 25.8162L78.3044 25.3468L76.3248 22.3264L75.6105 22.7958L76.3248 23.8774L73.0187 26.0407L73.5697 26.8978L76.8758 24.7346Z" fill="white"/>
<path d="M76.8554 31.2448L76.1003 29.6734L77.2228 29.1427L77.9371 30.6121L78.6922 30.2448L77.9575 28.7754L78.9167 28.306L79.6718 29.8774L80.4269 29.5101L79.2228 27.0203L74.8962 29.1223L76.1003 31.6121L76.8554 31.2448Z" fill="white"/>
<path d="M79.8962 34.306L82.4269 35.2448L82.0799 34.1631L80.1207 33.4285L79.4677 33.2244L81.5697 32.5509L81.2636 31.5713L76.6922 33.0407L76.9983 34.0203L78.6309 33.4897L79.0595 33.7958L77.5289 35.6121L77.8758 36.7142L79.8962 34.306Z" fill="white"/>
<path d="M82.3044 38.9999L82.5289 40.2856L83.3656 40.1427L82.733 36.5713L81.8962 36.7142L82.1207 37.9999L78.2228 38.6734L78.4064 39.6734L82.3044 38.9999Z" fill="white"/>
<path d="M14.4084 65.6122L13.4492 63.8367L14.7145 63.1633L15.592 64.8163L16.4492 64.3673L15.5716 62.7143L16.6533 62.1429L17.6124 63.9184L18.4696 63.4694L16.9186 60.6327L12.041 63.2449L13.5512 66.0612L14.4084 65.6122Z" fill="white"/>
<path d="M22.7349 68.9592L20.2451 71.2449C19.9186 71.5306 19.6329 71.6735 19.3675 71.6939C19.1022 71.6939 18.8369 71.5714 18.592 71.2857C18.3267 71 18.2043 70.7143 18.2451 70.449C18.2859 70.1837 18.4492 69.9184 18.7757 69.6327L21.2859 67.3469L20.49 66.4898L17.8369 68.8571C17.3675 69.2857 17.1226 69.7551 17.1226 70.3061C17.1226 70.8367 17.3471 71.3673 17.8369 71.898C18.1635 72.2449 18.49 72.4898 18.8369 72.6327C19.1839 72.7755 19.5512 72.8163 19.8982 72.7347C20.2451 72.6531 20.5716 72.4898 20.8777 72.2245L23.5308 69.8163L22.7349 68.9592Z" fill="white"/>
<path d="M26.3675 76.2653L27.2451 76.8367L26.6124 77.8163C26.3675 77.7143 26.1431 77.6122 25.939 77.4694C25.5512 77.2245 25.3267 76.898 25.2859 76.4898C25.2451 76.0816 25.388 75.6327 25.7145 75.1224C26.0206 74.6327 26.4084 74.3265 26.8369 74.2041C27.2859 74.0816 27.7145 74.1633 28.1431 74.4286C28.5104 74.6735 28.8165 74.9796 29.041 75.3673L29.8778 74.7959C29.5512 74.3265 29.1635 73.9184 28.6737 73.6122C27.9186 73.1224 27.1839 72.9592 26.4696 73.102C25.7757 73.2449 25.1839 73.6939 24.6941 74.449C24.2043 75.2245 24.0002 75.9388 24.1022 76.5918C24.2043 77.2449 24.6124 77.7959 25.3063 78.2449C25.592 78.4286 25.8573 78.5714 26.1635 78.7143C26.4492 78.8367 26.7757 78.9592 27.1431 79.0612L28.6941 76.6531L26.8369 75.4694L26.3675 76.2653Z" fill="white"/>
<path d="M35.1226 81.5306L33.2043 80.8776L33.6533 79.5306L35.4288 80.1224L35.7349 79.2041L33.9594 78.6122L34.3471 77.4694L36.2655 78.1224L36.5716 77.2041L33.5512 76.1837L31.7961 81.4286L34.8165 82.449L35.1226 81.5306Z" fill="white"/>
<path d="M45.041 78.3673L43.9798 78.2857L43.7961 80.898C43.7757 81.2041 43.7553 81.6939 43.7349 82.4286H43.7145L41.6124 78.1224L40.1431 78.0204L39.7349 83.551L40.7757 83.6327L40.9594 81.0408C40.9798 80.7347 41.0002 80.2041 41.0002 79.449H41.041L43.1431 83.7959L44.6329 83.898L45.041 78.3673Z" fill="white"/>
<path d="M55.6533 82.2449L57.592 81.5306C58.1839 81.3061 58.592 81.0204 58.8369 80.6122C59.0818 80.2245 59.1226 79.7959 58.939 79.3061C58.8165 78.9796 58.6533 78.7347 58.4288 78.5918C58.2043 78.449 57.9186 78.3878 57.5716 78.449L57.5512 78.4082C57.7757 78.2857 57.9186 78.0816 58.0002 77.8367C58.0818 77.5918 58.0614 77.3061 57.939 77C57.7757 76.551 57.49 76.2653 57.0614 76.1837C56.6533 76.102 56.0818 76.1837 55.3471 76.4694L53.7349 77.0612L55.6533 82.2449ZM55.1839 77.5306L55.7553 77.3265C56.0614 77.2041 56.3267 77.1633 56.49 77.2041C56.6737 77.2449 56.7961 77.3469 56.8573 77.551C56.939 77.7551 56.9186 77.9388 56.8165 78.0816C56.7145 78.2245 56.5104 78.3469 56.2247 78.449L55.592 78.6939L55.1839 77.5306ZM56.6124 79.3061C57.2247 79.0816 57.6124 79.1837 57.7757 79.6122C57.8573 79.8571 57.8573 80.0612 57.7553 80.2245C57.6533 80.3878 57.4492 80.5306 57.1431 80.6531L56.4288 80.9184L55.939 79.5714L56.6124 79.3061Z" fill="white"/>
<path d="M66.0206 75.898L64.3471 77.0204L63.5512 75.8367L65.1022 74.7959L64.5716 74L63.0206 75.0408L62.3471 74.0408L64.0206 72.9184L63.49 72.1224L60.8369 73.898L63.9186 78.4898L66.5716 76.7143L66.0206 75.898Z" fill="white"/>
<path d="M69.0818 68.1837C69.2859 68.0816 69.49 67.9796 69.6941 67.898L69.2451 66.9796C68.6941 67.2041 68.2247 67.5102 67.8573 67.898C67.49 68.2857 67.2655 68.6939 67.1635 69.1429C67.0614 69.5918 67.1022 70.0408 67.2859 70.4898C67.4696 70.9388 67.7553 71.3673 68.1839 71.7551C68.8573 72.3673 69.5104 72.6939 70.1635 72.7143C70.8165 72.7347 71.4084 72.449 71.9594 71.8571C72.3471 71.449 72.6124 71 72.7757 70.551L72.0614 69.8776C71.8369 70.4082 71.5716 70.8367 71.3063 71.102C70.6737 71.7755 69.9186 71.6939 69.0002 70.8571C68.5716 70.449 68.3063 70.0408 68.2247 69.6531C68.1431 69.2449 68.2655 68.8776 68.5512 68.5714C68.7349 68.4082 68.8982 68.2857 69.0818 68.1837Z" fill="white"/>
<path d="M74.4084 62.8776L73.1839 60L72.5512 61.1429L73.4696 63.3673L73.8165 64.0816L71.592 62.8571L71.0206 63.8776L75.8777 66.551L76.4492 65.5306L74.7145 64.5714L74.6329 63.9592L77.3675 63.8163L78.0002 62.6531L74.4084 62.8776Z" fill="white"/>
<path fill-rule="evenodd" clip-rule="evenodd" d="M9.38754 47.9592C10.2855 47.9592 11.0202 48.6939 11.0202 49.5919C11.0202 50.4898 10.2855 51.2245 9.38754 51.2245C8.48958 51.2245 7.75488 50.4898 7.75488 49.5919C7.75488 48.6939 8.48958 47.9592 9.38754 47.9592Z" fill="#3C1F79"/>
<path fill-rule="evenodd" clip-rule="evenodd" d="M80.8162 47.9592C81.7142 47.9592 82.4489 48.6939 82.4489 49.5919C82.4489 50.4898 81.7142 51.2245 80.8162 51.2245C79.9183 51.2245 79.1836 50.4898 79.1836 49.5919C79.1836 48.6939 79.9183 47.9592 80.8162 47.9592Z" fill="#3C1F79"/>
<defs>
<linearGradient id="paint0_linear" x1="45" y1="0" x2="45" y2="90" gradientUnits="userSpaceOnUse">
<stop stop-color="#5E4299"/>
<stop offset="1" stop-color="#20035F"/>
</linearGradient>
<linearGradient id="paint1_linear" x1="44.9955" y1="16.3264" x2="44.9955" y2="73.6785" gradientUnits="userSpaceOnUse">
<stop stop-color="#2C1166"/>
<stop offset="1" stop-color="#20035F"/>
</linearGradient>
<linearGradient id="paint2_linear" x1="44.8874" y1="17.9592" x2="44.8874" y2="72.2551" gradientUnits="userSpaceOnUse">
<stop stop-color="#4A2E83"/>
<stop offset="1" stop-color="#290C65"/>
</linearGradient>
</defs>
</svg>
