<svg width="70" height="69" viewBox="0 0 70 69" fill="none" xmlns="http://www.w3.org/2000/svg">
<g clip-path="url(#clip0)">
<path d="M37.3619 68.5634C35.8153 69.128 34.146 69.128 32.5995 68.5634L14.311 61.9108C12.7645 61.3462 11.488 60.2661 10.6779 58.8668L0.932184 42.0267C0.122089 40.6029 -0.17249 38.9582 0.0975411 37.3625L3.48521 18.2394C3.77979 16.6438 4.61443 15.1709 5.86639 14.1153L20.7672 1.62019C22.0192 0.564611 23.6148 0 25.235 0H44.7018C46.3466 0 47.9176 0.564611 49.1696 1.62019L64.0704 14.1153C65.3224 15.1709 66.157 16.6192 66.4516 18.2394L69.8393 37.3625C70.1339 38.9582 69.8393 40.6274 69.0046 42.0267L59.2835 58.8423C58.4734 60.2661 57.1724 61.3462 55.6504 61.8863L37.3619 68.5634Z" fill="url(#paint0_linear)"/>
<path d="M37.1164 66.8696C35.6681 67.4097 34.0724 67.4097 32.5995 66.8696L15.2684 60.5853C13.8201 60.0452 12.5927 59.0387 11.8071 57.6886L2.6015 41.7567C1.81595 40.4311 1.54592 38.86 1.81595 37.338L5.00723 19.2214C5.27727 17.6994 6.06281 16.3247 7.26568 15.3182L21.4055 3.51044C22.5838 2.50396 24.0813 1.96389 25.6278 1.96389H44.0636C45.6101 1.96389 47.1076 2.50396 48.3104 3.51044L62.4257 15.3427C63.604 16.3247 64.4141 17.7239 64.6842 19.2459L67.8755 37.3626C68.1455 38.8845 67.8754 40.4556 67.0899 41.7812L57.8843 57.6886C57.0987 59.0387 55.8959 60.0452 54.423 60.5853L37.1164 66.8696Z" fill="url(#paint1_linear)"/>
<path fill-rule="evenodd" clip-rule="evenodd" d="M34.8581 34.3679C48.1446 34.3679 58.9155 30.9608 58.9155 26.7579C58.9155 22.5551 48.1446 19.1479 34.8581 19.1479C21.5716 19.1479 10.8008 22.5551 10.8008 26.7579C10.8008 30.9608 21.5716 34.3679 34.8581 34.3679ZM34.8581 33.386C45.9754 33.386 54.9877 30.5284 54.9877 27.0034C54.9877 23.4784 45.9754 20.6208 34.8581 20.6208C23.7408 20.6208 14.7285 23.4784 14.7285 27.0034C14.7285 30.5284 23.7408 33.386 34.8581 33.386Z" fill="white"/>
<path fill-rule="evenodd" clip-rule="evenodd" d="M34.8581 40.2438C45.9754 40.2438 54.9877 37.4617 54.9877 34.0297C54.9877 30.5978 45.9754 27.8156 34.8581 27.8156C23.7408 27.8156 14.7285 30.5978 14.7285 34.0297C14.7285 37.4617 23.7408 40.2438 34.8581 40.2438ZM34.8581 39.442C44.1603 39.442 51.7013 37.1086 51.7013 34.2302C51.7013 31.3518 44.1603 29.0184 34.8581 29.0184C25.5559 29.0184 18.015 31.3518 18.015 34.2302C18.015 37.1086 25.5559 39.442 34.8581 39.442Z" fill="white"/>
<path fill-rule="evenodd" clip-rule="evenodd" d="M34.8581 45.9056C43.9417 45.9056 51.3055 43.5976 51.3055 40.7505C51.3055 37.9034 43.9417 35.5953 34.8581 35.5953C25.7745 35.5953 18.4108 37.9034 18.4108 40.7505C18.4108 43.5976 25.7745 45.9056 34.8581 45.9056ZM34.8581 45.2404C42.4587 45.2404 48.6202 43.3047 48.6202 40.9168C48.6202 38.5289 42.4587 36.5931 34.8581 36.5931C27.2575 36.5931 21.096 38.5289 21.096 40.9168C21.096 43.3047 27.2575 45.2404 34.8581 45.2404Z" fill="white"/>
<path fill-rule="evenodd" clip-rule="evenodd" d="M34.8581 50.0788C41.7725 50.0788 47.3778 48.4302 47.3778 46.3966C47.3778 44.3629 41.7725 42.7143 34.8581 42.7143C27.9437 42.7143 22.3385 44.3629 22.3385 46.3966C22.3385 48.4302 27.9437 50.0788 34.8581 50.0788ZM34.8581 49.6037C40.6436 49.6037 45.3337 48.221 45.3337 46.5154C45.3337 44.8097 40.6436 43.427 34.8581 43.427C29.0726 43.427 24.3825 44.8097 24.3825 46.5154C24.3825 48.221 29.0726 49.6037 34.8581 49.6037Z" fill="white"/>
</g>
<defs>
<linearGradient id="paint0_linear" x1="34.8457" y1="1.96387" x2="34.8457" y2="67.2746" gradientUnits="userSpaceOnUse">
<stop stop-color="#A6A6A6"/>
<stop offset="1" stop-color="#8D8D8D"/>
</linearGradient>
<linearGradient id="paint1_linear" x1="34.8457" y1="1.96387" x2="34.8457" y2="67.2746" gradientUnits="userSpaceOnUse">
<stop stop-color="#A6A6A6"/>
<stop offset="1" stop-color="#8D8D8D"/>
</linearGradient>
<clipPath id="clip0">
</clipPath>
</defs>
</svg>
