<svg width="19" height="19" viewBox="0 0 19 19" fill="none" xmlns="http://www.w3.org/2000/svg">
<path fill-rule="evenodd" clip-rule="evenodd" d="M8.78363 3.45981C8.2367 3.09869 7.84941 3.20948 7.4883 3.75641L3.23957 10.2707C2.96307 10.7688 3.0381 11.2895 3.53618 11.566L10.0505 15.8148C10.5974 16.1759 11.0693 16.0162 11.3458 15.5182L15.5945 9.00387C15.9556 8.45694 15.8448 8.06965 15.2979 7.70854L8.78363 3.45981ZM0.918397 8.7905L5.16713 2.2762C6.52696 0.137341 8.25843 -0.185443 10.2638 1.13863L16.7781 5.38736C18.917 6.7472 19.2398 8.47867 17.8311 10.5329L13.5824 17.0472C12.2225 19.1861 10.4911 19.5089 8.40104 18.2336L2.05597 13.8872C-0.0340458 12.612 -0.356829 10.8805 0.918397 8.7905Z" fill="#0090E1"/>
</svg>
